<svg xmlns="http://www.w3.org/2000/svg" xmlns:xlink="http://www.w3.org/1999/xlink" width="2000" zoomAndPan="magnify" viewBox="0 0 1500 1499.999933" height="2000" preserveAspectRatio="xMidYMid meet" version="1.0"><defs><clipPath id="c5cba08bc9"><path d="M 77.570312 77 L 728.167969 77 L 728.167969 1057 L 77.570312 1057 Z M 77.570312 77 " clip-rule="nonzero"/></clipPath><clipPath id="20568a31e5"><path d="M 728.546875 151.996094 L 728.546875 981.917969 C 728.546875 1023.335938 694.972656 1056.914062 653.550781 1056.914062 L 152.566406 1056.914062 C 111.148438 1056.914062 77.570312 1023.335938 77.570312 981.917969 L 77.570312 151.996094 C 77.570312 110.578125 111.148438 77 152.566406 77 L 653.550781 77 C 694.972656 77 728.546875 110.578125 728.546875 151.996094 Z M 728.546875 151.996094 " clip-rule="nonzero"/></clipPath><clipPath id="a5771f8d2f"><path d="M 189.078125 187.441406 L 839.675781 187.441406 L 839.675781 1167.792969 L 189.078125 1167.792969 Z M 189.078125 187.441406 " clip-rule="nonzero"/></clipPath><clipPath id="bd0e905c75"><path d="M 840.054688 262.4375 L 840.054688 1092.359375 C 840.054688 1133.777344 806.480469 1167.355469 765.058594 1167.355469 L 264.074219 1167.355469 C 222.65625 1167.355469 189.078125 1133.777344 189.078125 1092.359375 L 189.078125 262.4375 C 189.078125 221.019531 222.65625 187.441406 264.074219 187.441406 L 765.058594 187.441406 C 806.480469 187.441406 840.054688 221.019531 840.054688 262.4375 Z M 840.054688 262.4375 " clip-rule="nonzero"/></clipPath><clipPath id="d0b53627a7"><path d="M 299.449219 299.238281 L 950.046875 299.238281 L 950.046875 1279.589844 L 299.449219 1279.589844 Z M 299.449219 299.238281 " clip-rule="nonzero"/></clipPath><clipPath id="90cba3cac5"><path d="M 950.425781 374.234375 L 950.425781 1204.15625 C 950.425781 1245.574219 916.847656 1279.152344 875.429688 1279.152344 L 374.445312 1279.152344 C 333.023438 1279.152344 299.449219 1245.574219 299.449219 1204.15625 L 299.449219 374.234375 C 299.449219 332.8125 333.023438 299.238281 374.445312 299.238281 L 875.429688 299.238281 C 916.847656 299.238281 950.425781 332.8125 950.425781 374.234375 Z M 950.425781 374.234375 " clip-rule="nonzero"/></clipPath><clipPath id="f34359b85b"><rect x="0" width="1028" y="0" height="1360"/></clipPath></defs><g transform="matrix(1, 0, 0, 1, 236, 73)"><g clip-path="url(#f34359b85b)"><g clip-path="url(#c5cba08bc9)"><g clip-path="url(#20568a31e5)"><path stroke-linecap="butt" transform="matrix(1.478662, 0, 0, 1.478662, 77.557165, 76.999967)" fill="none" stroke-linejoin="miter" d="M 440.255784 50.718895 L 440.255784 611.98415 C 440.255784 639.994578 417.54734 662.703023 389.536912 662.703023 L 50.727764 662.703023 C 22.717336 662.703023 0.00889166 639.994578 0.00889166 611.98415 L 0.00889166 50.718895 C 0.00889166 22.708467 22.717336 0.0000222634 50.727764 0.0000222634 L 389.536912 0.0000222634 C 417.54734 0.0000222634 440.255784 22.708467 440.255784 50.718895 Z M 440.255784 50.718895 " stroke="#000000" stroke-width="23.331896" stroke-opacity="1" stroke-miterlimit="4"/></g></g><g clip-path="url(#a5771f8d2f)"><g clip-path="url(#bd0e905c75)"><path stroke-linecap="butt" transform="matrix(1.478662, 0, 0, 1.478662, 189.065953, 187.440798)" fill="none" stroke-linejoin="miter" d="M 440.255125 50.719284 L 440.255125 611.984539 C 440.255125 639.994967 417.549322 662.703412 389.536252 662.703412 L 50.727104 662.703412 C 22.716677 662.703412 0.00823194 639.994967 0.00823194 611.984539 L 0.00823194 50.719284 C 0.00823194 22.708856 22.716677 0.000411103 50.727104 0.000411103 L 389.536252 0.000411103 C 417.549322 0.000411103 440.255125 22.708856 440.255125 50.719284 Z M 440.255125 50.719284 " stroke="#000000" stroke-width="23.331896" stroke-opacity="1" stroke-miterlimit="4"/></g></g><g clip-path="url(#d0b53627a7)"><g clip-path="url(#90cba3cac5)"><path stroke-linecap="butt" transform="matrix(1.478662, 0, 0, 1.478662, 299.433894, 299.237428)" fill="none" stroke-linejoin="miter" d="M 440.257257 50.71945 L 440.257257 611.984705 C 440.257257 639.995133 417.548812 662.703577 389.538384 662.703577 L 50.729237 662.703577 C 22.716167 662.703577 0.0103642 639.995133 0.0103642 611.984705 L 0.0103642 50.71945 C 0.0103642 22.70638 22.716167 0.000577084 50.729237 0.000577084 L 389.538384 0.000577084 C 417.548812 0.000577084 440.257257 22.70638 440.257257 50.71945 Z M 440.257257 50.71945 " stroke="#000000" stroke-width="23.331896" stroke-opacity="1" stroke-miterlimit="4"/></g></g></g></g></svg>
