<svg xmlns="http://www.w3.org/2000/svg" xmlns:xlink="http://www.w3.org/1999/xlink" width="2000" zoomAndPan="magnify" viewBox="0 0 1500 1499.999933" height="2000" preserveAspectRatio="xMidYMid meet" version="1.0"><defs><clipPath id="0ce5afc1e7"><path d="M 197.792969 36.289062 L 970.296875 36.289062 L 970.296875 1200 L 197.792969 1200 Z M 197.792969 36.289062 " clip-rule="nonzero"/></clipPath><clipPath id="496e1c07cd"><path d="M 970.75 111.285156 L 970.75 1124.820312 C 970.75 1144.710938 962.847656 1163.785156 948.78125 1177.847656 C 934.71875 1191.914062 915.640625 1199.816406 895.753906 1199.816406 L 272.792969 1199.816406 C 252.902344 1199.816406 233.824219 1191.914062 219.761719 1177.847656 C 205.695312 1163.785156 197.792969 1144.710938 197.792969 1124.820312 L 197.792969 111.285156 C 197.792969 91.394531 205.695312 72.320312 219.761719 58.253906 C 233.824219 44.191406 252.902344 36.289062 272.792969 36.289062 L 895.753906 36.289062 C 915.640625 36.289062 934.71875 44.191406 948.78125 58.253906 C 962.847656 72.320312 970.75 91.394531 970.75 111.285156 Z M 970.75 111.285156 " clip-rule="nonzero"/></clipPath><clipPath id="279aeb46c2"><path d="M 330.199219 167.425781 L 1102.703125 167.425781 L 1102.703125 1331 L 330.199219 1331 Z M 330.199219 167.425781 " clip-rule="nonzero"/></clipPath><clipPath id="7d06ab28e2"><path d="M 1103.152344 242.421875 L 1103.152344 1255.953125 C 1103.152344 1275.84375 1095.25 1294.917969 1081.183594 1308.984375 C 1067.121094 1323.046875 1048.046875 1330.949219 1028.15625 1330.949219 L 405.195312 1330.949219 C 385.304688 1330.949219 366.226562 1323.046875 352.164062 1308.984375 C 338.097656 1294.917969 330.199219 1275.84375 330.199219 1255.953125 L 330.199219 242.421875 C 330.199219 222.53125 338.097656 203.453125 352.164062 189.390625 C 366.226562 175.324219 385.304688 167.425781 405.195312 167.425781 L 1028.15625 167.425781 C 1048.046875 167.425781 1067.121094 175.324219 1081.183594 189.390625 C 1095.25 203.453125 1103.152344 222.53125 1103.152344 242.421875 Z M 1103.152344 242.421875 " clip-rule="nonzero"/></clipPath><clipPath id="c6a58e82f7"><path d="M 461.246094 300.167969 L 1233.75 300.167969 L 1233.75 1464 L 461.246094 1464 Z M 461.246094 300.167969 " clip-rule="nonzero"/></clipPath><clipPath id="65f0699ec2"><path d="M 1234.199219 375.164062 L 1234.199219 1388.699219 C 1234.199219 1408.589844 1226.296875 1427.664062 1212.234375 1441.730469 C 1198.167969 1455.792969 1179.09375 1463.695312 1159.203125 1463.695312 L 536.242188 1463.695312 C 516.351562 1463.695312 497.277344 1455.792969 483.210938 1441.730469 C 469.148438 1427.664062 461.246094 1408.589844 461.246094 1388.699219 L 461.246094 375.164062 C 461.246094 355.273438 469.148438 336.199219 483.210938 322.132812 C 497.277344 308.070312 516.351562 300.167969 536.242188 300.167969 L 1159.203125 300.167969 C 1179.09375 300.167969 1198.167969 308.070312 1212.234375 322.132812 C 1226.296875 336.199219 1234.199219 355.273438 1234.199219 375.164062 Z M 1234.199219 375.164062 " clip-rule="nonzero"/></clipPath><clipPath id="0f846ba163"><rect x="0" width="1433" y="0" height="1500"/></clipPath></defs><g transform="matrix(1, 0, 0, 1, 34, 0.000000000000112861)"><g clip-path="url(#0f846ba163)"><g clip-path="url(#0ce5afc1e7)"><g clip-path="url(#496e1c07cd)"><path stroke-linecap="butt" transform="matrix(1.755727, 0, 0, 1.755727, 197.778578, 36.28932)" fill="none" stroke-linejoin="miter" d="M 440.257152 42.714973 L 440.257152 619.98871 C 440.257152 631.317705 435.756257 642.181705 427.74453 650.191207 C 419.735028 658.202934 408.868803 662.703829 397.542032 662.703829 L 42.725541 662.703829 C 31.396545 662.703829 20.530321 658.202934 12.520818 650.191207 C 4.509092 642.181705 0.00819636 631.317705 0.00819636 619.98871 L 0.00819636 42.714973 C 0.00819636 31.385977 4.509092 20.521977 12.520818 12.510251 C 20.530321 4.500748 31.396545 -0.000146751 42.725541 -0.000146751 L 397.542032 -0.000146751 C 408.868803 -0.000146751 419.735028 4.500748 427.74453 12.510251 C 435.756257 20.521977 440.257152 31.385977 440.257152 42.714973 Z M 440.257152 42.714973 " stroke="#000000" stroke-width="52.969505" stroke-opacity="1" stroke-miterlimit="4"/></g></g><g clip-path="url(#279aeb46c2)"><g clip-path="url(#7d06ab28e2)"><path stroke-linecap="butt" transform="matrix(1.755727, 0, 0, 1.755727, 330.181311, 167.424047)" fill="none" stroke-linejoin="miter" d="M 440.25693 42.716107 L 440.25693 619.987619 C 440.25693 631.316615 435.756035 642.180615 427.744308 650.192342 C 419.734806 658.201844 408.870807 662.702739 397.541811 662.702739 L 42.725319 662.702739 C 31.396324 662.702739 20.530099 658.201844 12.520597 650.192342 C 4.50887 642.180615 0.0101997 631.316615 0.0101997 619.987619 L 0.0101997 42.716107 C 0.0101997 31.387111 4.50887 20.520887 12.520597 12.511385 C 20.530099 4.499658 31.396324 0.000987665 42.725319 0.000987665 L 397.541811 0.000987665 C 408.870807 0.000987665 419.734806 4.499658 427.744308 12.511385 C 435.756035 20.520887 440.25693 31.387111 440.25693 42.716107 Z M 440.25693 42.716107 " stroke="#000000" stroke-width="52.969505" stroke-opacity="1" stroke-miterlimit="4"/></g></g><g clip-path="url(#c6a58e82f7)"><g clip-path="url(#65f0699ec2)"><path stroke-linecap="butt" transform="matrix(1.755727, 0, 0, 1.755727, 461.229455, 300.168617)" fill="none" stroke-linejoin="miter" d="M 440.256208 42.714751 L 440.256208 619.988488 C 440.256208 631.317483 435.755313 642.181483 427.745811 650.190985 C 419.734084 658.202712 408.870084 662.703607 397.541088 662.703607 L 42.724597 662.703607 C 31.395601 662.703607 20.531601 658.202712 12.519874 650.190985 C 4.510372 642.181483 0.00947702 631.317483 0.00947702 619.988488 L 0.00947702 42.714751 C 0.00947702 31.385755 4.510372 20.521755 12.519874 12.510028 C 20.531601 4.500526 31.395601 -0.000368961 42.724597 -0.000368961 L 397.541088 -0.000368961 C 408.870084 -0.000368961 419.734084 4.500526 427.745811 12.510028 C 435.755313 20.521755 440.256208 31.385755 440.256208 42.714751 Z M 440.256208 42.714751 " stroke="#000000" stroke-width="52.969505" stroke-opacity="1" stroke-miterlimit="4"/></g></g></g></g></svg>