<svg xmlns="http://www.w3.org/2000/svg" xmlns:xlink="http://www.w3.org/1999/xlink" width="2000" zoomAndPan="magnify" viewBox="0 0 1500 1499.999933" height="2000" preserveAspectRatio="xMidYMid meet" version="1.0"><defs><g/><clipPath id="f0cd844723"><path d="M 60.664062 73.121094 L 345.015625 73.121094 L 345.015625 501.597656 L 60.664062 501.597656 Z M 60.664062 73.121094 " clip-rule="nonzero"/></clipPath><clipPath id="09f172c367"><path d="M 345.179688 148.117188 L 345.179688 426.40625 C 345.179688 467.828125 311.605469 501.40625 270.183594 501.40625 L 135.660156 501.40625 C 94.242188 501.40625 60.664062 467.828125 60.664062 426.40625 L 60.664062 148.117188 C 60.664062 106.699219 94.242188 73.121094 135.660156 73.121094 L 270.183594 73.121094 C 311.605469 73.121094 345.179688 106.699219 345.179688 148.117188 Z M 345.179688 148.117188 " clip-rule="nonzero"/></clipPath><clipPath id="9e851bb5fb"><path d="M 109.402344 121.390625 L 393.75 121.390625 L 393.75 549.867188 L 109.402344 549.867188 Z M 109.402344 121.390625 " clip-rule="nonzero"/></clipPath><clipPath id="b9280cdeb7"><path d="M 393.917969 196.386719 L 393.917969 474.675781 C 393.917969 516.097656 360.339844 549.671875 318.921875 549.671875 L 184.398438 549.671875 C 142.976562 549.671875 109.402344 516.097656 109.402344 474.675781 L 109.402344 196.386719 C 109.402344 154.96875 142.976562 121.390625 184.398438 121.390625 L 318.921875 121.390625 C 360.339844 121.390625 393.917969 154.96875 393.917969 196.386719 Z M 393.917969 196.386719 " clip-rule="nonzero"/></clipPath><clipPath id="195835e01a"><path d="M 157.636719 170.253906 L 441.988281 170.253906 L 441.988281 598.726562 L 157.636719 598.726562 Z M 157.636719 170.253906 " clip-rule="nonzero"/></clipPath><clipPath id="c8f92e27fd"><path d="M 442.15625 245.25 L 442.15625 523.539062 C 442.15625 564.957031 408.578125 598.535156 367.160156 598.535156 L 232.632812 598.535156 C 191.214844 598.535156 157.636719 564.957031 157.636719 523.539062 L 157.636719 245.25 C 157.636719 203.832031 191.214844 170.253906 232.632812 170.253906 L 367.160156 170.253906 C 408.578125 170.253906 442.15625 203.832031 442.15625 245.25 Z M 442.15625 245.25 " clip-rule="nonzero"/></clipPath><clipPath id="2392366214"><rect x="0" width="516" y="0" height="673"/></clipPath><clipPath id="5233e507d9"><rect x="0" width="937" y="0" height="218"/></clipPath><clipPath id="04c8aa6534"><rect x="0" width="567" y="0" height="192"/></clipPath><clipPath id="02c1e6ea36"><rect x="0" width="133" y="0" height="75"/></clipPath></defs><g transform="matrix(1, 0, 0, 1, 0, 372)"><g clip-path="url(#2392366214)"><g clip-path="url(#f0cd844723)"><g clip-path="url(#09f172c367)"><path stroke-linecap="butt" transform="matrix(0.646266, 0, 0, 0.646266, 60.658336, 73.121718)" fill="none" stroke-linejoin="miter" d="M 440.254122 116.044241 L 440.254122 546.654831 C 440.254122 610.74897 388.303053 662.700039 324.208914 662.700039 L 116.054069 662.700039 C 51.965973 662.700039 0.00886071 610.74897 0.00886071 546.654831 L 0.00886071 116.044241 C 0.00886071 51.956146 51.965973 -0.000966645 116.054069 -0.000966645 L 324.208914 -0.000966645 C 388.303053 -0.000966645 440.254122 51.956146 440.254122 116.044241 Z M 440.254122 116.044241 " stroke="#000000" stroke-width="53.383575" stroke-opacity="1" stroke-miterlimit="4"/></g></g><g clip-path="url(#9e851bb5fb)"><g clip-path="url(#b9280cdeb7)"><path stroke-linecap="butt" transform="matrix(0.646266, 0, 0, 0.646266, 109.394503, 121.391189)" fill="none" stroke-linejoin="miter" d="M 440.257393 116.044336 L 440.257393 546.654925 C 440.257393 610.749065 388.30028 662.700133 324.212185 662.700133 L 116.05734 662.700133 C 51.963201 662.700133 0.0121322 610.749065 0.0121322 546.654925 L 0.0121322 116.044336 C 0.0121322 51.95624 51.963201 -0.000872245 116.05734 -0.000872245 L 324.212185 -0.000872245 C 388.30028 -0.000872245 440.257393 51.95624 440.257393 116.044336 Z M 440.257393 116.044336 " stroke="#000000" stroke-width="53.383575" stroke-opacity="1" stroke-miterlimit="4"/></g></g><g clip-path="url(#195835e01a)"><g clip-path="url(#c8f92e27fd)"><path stroke-linecap="butt" transform="matrix(0.646266, 0, 0, 0.646266, 157.632046, 170.253096)" fill="none" stroke-linejoin="miter" d="M 440.258535 116.046461 L 440.258535 546.65705 C 440.258535 610.745145 388.301423 662.702258 324.213328 662.702258 L 116.052438 662.702258 C 51.964343 662.702258 0.00723011 610.745145 0.00723011 546.65705 L 0.00723011 116.046461 C 0.00723011 51.958366 51.964343 0.00125298 116.052438 0.00125298 L 324.213328 0.00125298 C 388.301423 0.00125298 440.258535 51.958366 440.258535 116.046461 Z M 440.258535 116.046461 " stroke="#000000" stroke-width="53.383575" stroke-opacity="1" stroke-miterlimit="4"/></g></g></g></g><g transform="matrix(1, 0, 0, 1, 494, 545)"><g clip-path="url(#5233e507d9)"><g fill="#000000" fill-opacity="1"><g transform="translate(0.657393, 175.765785)"><g><path d="M 178.671875 -124.40625 L 145.6875 0 L 112.6875 0 L 91.40625 -103.484375 L 69.046875 0 L 35.875 0 L 4.6875 -124.40625 L 31.546875 -124.40625 L 52.46875 -19.109375 L 74.46875 -122.609375 L 109.4375 -122.609375 L 130.71875 -18.75 L 153.078125 -124.40625 Z M 178.671875 -124.40625 "/></g></g></g><g fill="#000000" fill-opacity="1"><g transform="translate(178.601457, 175.765785)"><g><path d="M 18.03125 -84.46875 C 26.800781 -93.78125 39 -98.4375 54.625 -98.4375 C 70.25 -98.4375 82.445312 -93.78125 91.21875 -84.46875 C 100 -75.15625 104.390625 -62.984375 104.390625 -47.953125 C 104.390625 -33.054688 100 -20.914062 91.21875 -11.53125 C 82.445312 -2.15625 70.25 2.53125 54.625 2.53125 C 39 2.53125 26.800781 -2.15625 18.03125 -11.53125 C 9.257812 -20.914062 4.875 -33.054688 4.875 -47.953125 C 4.875 -62.984375 9.257812 -75.15625 18.03125 -84.46875 Z M 37.046875 -23.703125 C 41.316406 -17.878906 47.175781 -14.96875 54.625 -14.96875 C 62.082031 -14.96875 67.941406 -17.878906 72.203125 -23.703125 C 76.472656 -29.535156 78.609375 -37.617188 78.609375 -47.953125 C 78.609375 -58.296875 76.472656 -66.378906 72.203125 -72.203125 C 67.941406 -78.035156 62.082031 -80.953125 54.625 -80.953125 C 47.175781 -80.953125 41.316406 -78.035156 37.046875 -72.203125 C 32.785156 -66.378906 30.65625 -58.296875 30.65625 -47.953125 C 30.65625 -37.617188 32.785156 -29.535156 37.046875 -23.703125 Z M 37.046875 -23.703125 "/></g></g></g><g fill="#000000" fill-opacity="1"><g transform="translate(287.855853, 175.765785)"><g><path d="M 60.21875 -98.265625 C 62.976562 -98.265625 65.320312 -98.023438 67.25 -97.546875 L 67.25 -77.53125 C 56.675781 -78.25 48.863281 -75.992188 43.8125 -70.765625 C 38.757812 -65.535156 36.234375 -56.613281 36.234375 -44 L 36.234375 0 L 11.359375 0 L 11.359375 -95.921875 L 36.234375 -95.921875 L 36.234375 -78.421875 L 43.8125 -91.765625 C 48.5 -96.097656 53.96875 -98.265625 60.21875 -98.265625 Z M 60.21875 -98.265625 "/></g></g></g><g fill="#000000" fill-opacity="1"><g transform="translate(356.365239, 175.765785)"><g><path d="M 44.171875 -37.859375 L 36.234375 -29.203125 L 36.234375 0 L 11.359375 0 L 11.359375 -132.515625 L 36.234375 -132.515625 L 36.234375 -52.109375 L 74.828125 -95.921875 L 104.75 -95.921875 L 62.203125 -51.390625 L 105.296875 0 L 73.921875 0 Z M 44.171875 -37.859375 "/></g></g></g><g fill="#000000" fill-opacity="1"><g transform="translate(461.473035, 175.765785)"><g><path d="M 45.609375 -98.4375 C 56.671875 -98.4375 65.503906 -95.671875 72.109375 -90.140625 C 78.722656 -84.617188 82.570312 -77.289062 83.65625 -68.15625 L 58.78125 -68.15625 C 57.09375 -77.40625 52.164062 -82.03125 44 -82.03125 C 40.382812 -82.03125 37.585938 -81.097656 35.609375 -79.234375 C 33.628906 -77.378906 32.640625 -74.890625 32.640625 -71.765625 C 32.640625 -68.148438 34.257812 -65.257812 37.5 -63.09375 C 40.75 -60.9375 46.398438 -58.835938 54.453125 -56.796875 C 64.910156 -54.148438 72.722656 -50.484375 77.890625 -45.796875 C 83.054688 -41.109375 85.640625 -34.554688 85.640625 -26.140625 C 85.640625 -16.890625 81.941406 -9.796875 74.546875 -4.859375 C 67.160156 0.0664062 57.695312 2.53125 46.15625 2.53125 C 34.132812 2.53125 24.394531 -0.113281 16.9375 -5.40625 C 9.488281 -10.695312 5.101562 -18.628906 3.78125 -29.203125 L 28.671875 -29.203125 C 29.628906 -24.160156 31.703125 -20.347656 34.890625 -17.765625 C 38.078125 -15.179688 41.953125 -13.890625 46.515625 -13.890625 C 50.722656 -13.890625 54.117188 -14.789062 56.703125 -16.59375 C 59.285156 -18.394531 60.578125 -20.976562 60.578125 -24.34375 C 60.578125 -28.0625 58.832031 -31.09375 55.34375 -33.4375 C 51.863281 -35.78125 45.976562 -37.976562 37.6875 -40.03125 C 27.945312 -42.425781 20.492188 -45.878906 15.328125 -50.390625 C 10.160156 -54.898438 7.578125 -61.0625 7.578125 -68.875 C 7.578125 -78.007812 11.03125 -85.21875 17.9375 -90.5 C 24.851562 -95.789062 34.078125 -98.4375 45.609375 -98.4375 Z M 45.609375 -98.4375 "/></g></g></g><g fill="#000000" fill-opacity="1"><g transform="translate(551.076092, 175.765785)"><g><path d="M 100.78125 -71.578125 C 101.257812 -67.253906 101.5 -61.425781 101.5 -54.09375 L 101.5 0 L 76.625 0 L 76.625 -50.65625 C 76.625 -56.3125 76.503906 -60.757812 76.265625 -64 C 75.421875 -75.300781 69.289062 -80.953125 57.875 -80.953125 C 51.382812 -80.828125 46.15625 -77.757812 42.1875 -71.75 C 38.21875 -65.75 36.234375 -56.4375 36.234375 -43.8125 L 36.234375 0 L 11.359375 0 L 11.359375 -133.421875 L 36.234375 -133.421875 L 36.234375 -80.40625 L 43.625 -91.765625 C 49.875 -96.210938 57.566406 -98.4375 66.703125 -98.4375 C 76.804688 -98.4375 84.769531 -96.09375 90.59375 -91.40625 C 96.425781 -86.71875 99.820312 -80.109375 100.78125 -71.578125 Z M 100.78125 -71.578125 "/></g></g></g><g fill="#000000" fill-opacity="1"><g transform="translate(663.03477, 175.765785)"><g><path d="M 98.4375 -49.9375 C 98.4375 -46.457031 98.316406 -43.632812 98.078125 -41.46875 L 29.921875 -41.46875 C 31.367188 -23.800781 38.765625 -14.96875 52.109375 -14.96875 C 57.515625 -14.96875 61.988281 -16.410156 65.53125 -19.296875 C 69.082031 -22.179688 71.28125 -26.144531 72.125 -31.1875 L 97 -31.1875 C 94.59375 -20.25 89.332031 -11.894531 81.21875 -6.125 C 73.101562 -0.351562 63.21875 2.53125 51.5625 2.53125 C 37.738281 2.53125 26.5 -1.765625 17.84375 -10.359375 C 9.195312 -18.960938 4.875 -31.375 4.875 -47.59375 C 4.875 -62.5 9.347656 -74.695312 18.296875 -84.1875 C 27.253906 -93.6875 39.003906 -98.4375 53.546875 -98.4375 C 67.609375 -98.4375 78.601562 -93.804688 86.53125 -84.546875 C 94.46875 -75.296875 98.4375 -63.757812 98.4375 -49.9375 Z M 52.46875 -80.953125 C 40.082031 -80.953125 32.8125 -73.195312 30.65625 -57.6875 L 72.84375 -57.6875 C 71.15625 -73.195312 64.363281 -80.953125 52.46875 -80.953125 Z M 52.46875 -80.953125 "/></g></g></g><g fill="#000000" fill-opacity="1"><g transform="translate(767.241123, 175.765785)"><g><path d="M 98.4375 -49.9375 C 98.4375 -46.457031 98.316406 -43.632812 98.078125 -41.46875 L 29.921875 -41.46875 C 31.367188 -23.800781 38.765625 -14.96875 52.109375 -14.96875 C 57.515625 -14.96875 61.988281 -16.410156 65.53125 -19.296875 C 69.082031 -22.179688 71.28125 -26.144531 72.125 -31.1875 L 97 -31.1875 C 94.59375 -20.25 89.332031 -11.894531 81.21875 -6.125 C 73.101562 -0.351562 63.21875 2.53125 51.5625 2.53125 C 37.738281 2.53125 26.5 -1.765625 17.84375 -10.359375 C 9.195312 -18.960938 4.875 -31.375 4.875 -47.59375 C 4.875 -62.5 9.347656 -74.695312 18.296875 -84.1875 C 27.253906 -93.6875 39.003906 -98.4375 53.546875 -98.4375 C 67.609375 -98.4375 78.601562 -93.804688 86.53125 -84.546875 C 94.46875 -75.296875 98.4375 -63.757812 98.4375 -49.9375 Z M 52.46875 -80.953125 C 40.082031 -80.953125 32.8125 -73.195312 30.65625 -57.6875 L 72.84375 -57.6875 C 71.15625 -73.195312 64.363281 -80.953125 52.46875 -80.953125 Z M 52.46875 -80.953125 "/></g></g></g><g fill="#000000" fill-opacity="1"><g transform="translate(871.447476, 175.765785)"><g><path d="M 41.109375 -78.796875 L 41.109375 -34.4375 C 41.109375 -30.46875 41.164062 -27.644531 41.28125 -25.96875 C 41.644531 -21.28125 43.03125 -18.242188 45.4375 -16.859375 C 47.84375 -15.472656 52.46875 -15.019531 59.3125 -15.5 L 59.3125 0.71875 C 54.144531 1.5625 48.675781 1.984375 42.90625 1.984375 C 33.769531 1.984375 27.25 0.449219 23.34375 -2.609375 C 19.4375 -5.679688 17.1875 -10.703125 16.59375 -17.671875 C 16.351562 -20.554688 16.234375 -25.179688 16.234375 -31.546875 L 16.234375 -78.796875 L 2.15625 -78.796875 L 2.15625 -95.203125 L 16.234375 -95.203125 L 16.234375 -118.8125 L 41.109375 -118.8125 L 41.109375 -95.203125 L 60.9375 -95.203125 L 60.9375 -78.796875 Z M 41.109375 -78.796875 "/></g></g></g></g></g><g transform="matrix(1, 0, 0, 1, 494, 749)"><g clip-path="url(#04c8aa6534)"><g fill="#000000" fill-opacity="1"><g transform="translate(0.657393, 145.172744)"><g><path d="M 102.5625 -89.9375 C 102.5625 -84.425781 101.675781 -79.488281 99.90625 -75.125 C 98.144531 -70.757812 95.367188 -67.070312 91.578125 -64.0625 C 87.785156 -61.050781 82.847656 -58.710938 76.765625 -57.046875 C 70.691406 -55.390625 63.289062 -54.5625 54.5625 -54.5625 L 40.53125 -54.5625 L 40.53125 -24.46875 C 40.53125 -20.625 40.765625 -17.476562 41.234375 -15.03125 C 41.703125 -12.59375 42.6875 -10.695312 44.1875 -9.34375 C 45.695312 -8 47.878906 -7.09375 50.734375 -6.625 C 53.597656 -6.15625 57.363281 -5.921875 62.03125 -5.921875 L 62.03125 0 L 7.015625 0 L 7.015625 -5.921875 C 10.648438 -6.023438 13.582031 -6.335938 15.8125 -6.859375 C 18.050781 -7.378906 19.789062 -8.257812 21.03125 -9.5 C 22.28125 -10.75 23.113281 -12.515625 23.53125 -14.796875 C 23.945312 -17.085938 24.15625 -20.050781 24.15625 -23.6875 L 24.15625 -96.328125 C 24.15625 -99.960938 23.972656 -102.894531 23.609375 -105.125 C 23.242188 -107.363281 22.515625 -109.132812 21.421875 -110.4375 C 20.335938 -111.738281 18.753906 -112.617188 16.671875 -113.078125 C 14.597656 -113.546875 11.898438 -113.882812 8.578125 -114.09375 L 8.578125 -120.03125 L 57.515625 -120.03125 C 71.859375 -120.03125 82.953125 -117.378906 90.796875 -112.078125 C 98.640625 -106.773438 102.5625 -99.394531 102.5625 -89.9375 Z M 40.53125 -62.34375 L 51.59375 -62.34375 C 61.988281 -62.34375 69.703125 -64.34375 74.734375 -68.34375 C 79.773438 -72.351562 82.296875 -78.925781 82.296875 -88.0625 C 82.296875 -96.894531 80.296875 -103.207031 76.296875 -107 C 72.296875 -110.800781 66.035156 -112.703125 57.515625 -112.703125 L 43.171875 -112.703125 C 41.410156 -112.703125 40.53125 -111.816406 40.53125 -110.046875 Z M 40.53125 -62.34375 "/></g></g></g><g fill="#000000" fill-opacity="1"><g transform="translate(107.739465, 145.172744)"><g><path d="M 34.609375 -24.78125 C 34.609375 -20.519531 34.710938 -17.140625 34.921875 -14.640625 C 35.128906 -12.148438 35.671875 -10.253906 36.546875 -8.953125 C 37.429688 -7.660156 38.703125 -6.804688 40.359375 -6.390625 C 42.023438 -5.972656 44.367188 -5.660156 47.390625 -5.453125 L 47.390625 0 L 5.921875 0 L 5.921875 -5.453125 C 8.929688 -5.554688 11.320312 -5.84375 13.09375 -6.3125 C 14.863281 -6.78125 16.210938 -7.632812 17.140625 -8.875 C 18.078125 -10.125 18.675781 -11.914062 18.9375 -14.25 C 19.195312 -16.59375 19.328125 -19.738281 19.328125 -23.6875 L 19.328125 -41.9375 C 19.328125 -49 19.25 -54.503906 19.09375 -58.453125 C 18.9375 -62.398438 18.414062 -65.304688 17.53125 -67.171875 C 16.65625 -69.046875 15.28125 -70.164062 13.40625 -70.53125 C 11.53125 -70.894531 8.929688 -71.078125 5.609375 -71.078125 L 5.609375 -76.53125 L 32.890625 -82.453125 L 35.078125 -63.125 L 35.703125 -63.125 C 37.046875 -66.25 38.726562 -69.109375 40.75 -71.703125 C 42.78125 -74.296875 44.988281 -76.503906 47.375 -78.328125 C 49.769531 -80.148438 52.265625 -81.578125 54.859375 -82.609375 C 57.460938 -83.648438 60.113281 -84.171875 62.8125 -84.171875 C 66.144531 -84.171875 68.769531 -83.363281 70.6875 -81.75 C 72.613281 -80.144531 73.578125 -77.988281 73.578125 -75.28125 C 73.578125 -72.789062 72.796875 -70.84375 71.234375 -69.4375 C 69.671875 -68.039062 67.4375 -67.34375 64.53125 -67.34375 C 62.863281 -67.34375 61.457031 -67.546875 60.3125 -67.953125 C 59.175781 -68.367188 58.164062 -68.8125 57.28125 -69.28125 C 56.394531 -69.75 55.5625 -70.191406 54.78125 -70.609375 C 54.007812 -71.023438 53.15625 -71.234375 52.21875 -71.234375 C 49.414062 -71.234375 46.609375 -69.441406 43.796875 -65.859375 C 40.992188 -62.273438 38.8125 -57.726562 37.25 -52.21875 C 36.414062 -49.207031 35.765625 -45.800781 35.296875 -42 C 34.835938 -38.207031 34.609375 -34.234375 34.609375 -30.078125 Z M 34.609375 -24.78125 "/></g></g></g><g fill="#000000" fill-opacity="1"><g transform="translate(182.089065, 145.172744)"><g><path d="M 50.65625 -84.171875 C 56.582031 -84.171875 62.191406 -83.101562 67.484375 -80.96875 C 72.785156 -78.84375 77.4375 -75.910156 81.4375 -72.171875 C 85.445312 -68.429688 88.617188 -63.988281 90.953125 -58.84375 C 93.285156 -53.695312 94.453125 -48.0625 94.453125 -41.9375 C 94.453125 -35.59375 93.285156 -29.769531 90.953125 -24.46875 C 88.617188 -19.164062 85.445312 -14.59375 81.4375 -10.75 C 77.4375 -6.90625 72.785156 -3.890625 67.484375 -1.703125 C 62.191406 0.472656 56.582031 1.5625 50.65625 1.5625 C 44.84375 1.5625 39.3125 0.496094 34.0625 -1.625 C 28.8125 -3.757812 24.210938 -6.75 20.265625 -10.59375 C 16.316406 -14.4375 13.195312 -19.035156 10.90625 -24.390625 C 8.625 -29.742188 7.484375 -35.59375 7.484375 -41.9375 C 7.484375 -48.0625 8.625 -53.722656 10.90625 -58.921875 C 13.195312 -64.117188 16.316406 -68.585938 20.265625 -72.328125 C 24.210938 -76.066406 28.8125 -78.972656 34.0625 -81.046875 C 39.3125 -83.128906 44.84375 -84.171875 50.65625 -84.171875 Z M 50.65625 -76.6875 C 46.8125 -76.6875 43.304688 -75.851562 40.140625 -74.1875 C 36.972656 -72.53125 34.269531 -70.164062 32.03125 -67.09375 C 29.800781 -64.03125 28.085938 -60.34375 26.890625 -56.03125 C 25.691406 -51.71875 25.09375 -46.96875 25.09375 -41.78125 C 25.09375 -36.375 25.691406 -31.488281 26.890625 -27.125 C 28.085938 -22.757812 29.800781 -19.039062 32.03125 -15.96875 C 34.269531 -12.90625 36.945312 -10.539062 40.0625 -8.875 C 43.175781 -7.21875 46.707031 -6.390625 50.65625 -6.390625 C 54.601562 -6.390625 58.1875 -7.21875 61.40625 -8.875 C 64.632812 -10.539062 67.390625 -12.929688 69.671875 -16.046875 C 71.960938 -19.171875 73.726562 -22.914062 74.96875 -27.28125 C 76.21875 -31.644531 76.84375 -36.476562 76.84375 -41.78125 C 76.84375 -46.96875 76.21875 -51.691406 74.96875 -55.953125 C 73.726562 -60.210938 71.960938 -63.875 69.671875 -66.9375 C 67.390625 -70.007812 64.632812 -72.398438 61.40625 -74.109375 C 58.1875 -75.828125 54.601562 -76.6875 50.65625 -76.6875 Z M 50.65625 -76.6875 "/></g></g></g><g fill="#000000" fill-opacity="1"><g transform="translate(284.027499, 145.172744)"><g><path d="M 33.203125 0.3125 C 33.203125 13.300781 30.472656 23.25 25.015625 30.15625 C 19.554688 37.070312 11.632812 40.53125 1.25 40.53125 C -5.40625 40.53125 -10.835938 39.203125 -15.046875 36.546875 C -19.253906 33.898438 -21.359375 30.394531 -21.359375 26.03125 C -21.359375 23.644531 -20.65625 21.828125 -19.25 20.578125 C -17.84375 19.328125 -15.894531 18.703125 -13.40625 18.703125 C -11.53125 18.703125 -10.097656 19.144531 -9.109375 20.03125 C -8.128906 20.914062 -6.859375 22.914062 -5.296875 26.03125 C -3.847656 29.144531 -2.5 31.222656 -1.25 32.265625 C 0 33.304688 1.921875 33.828125 4.515625 33.828125 C 9.503906 33.828125 12.984375 32.109375 14.953125 28.671875 C 16.929688 25.242188 17.921875 19.21875 17.921875 10.59375 L 17.921875 -43.640625 C 17.921875 -49.671875 17.84375 -54.632812 17.6875 -58.53125 C 17.53125 -62.425781 17.242188 -65.101562 16.828125 -66.5625 C 16.316406 -68.945312 15.125 -70.582031 13.25 -71.46875 C 11.375 -72.351562 7.84375 -72.796875 2.65625 -72.796875 L 2.65625 -78.25 L 33.203125 -84.171875 Z M 15.59375 -115.8125 C 15.59375 -118.519531 16.523438 -120.804688 18.390625 -122.671875 C 20.265625 -124.546875 22.550781 -125.484375 25.25 -125.484375 C 27.945312 -125.484375 30.234375 -124.546875 32.109375 -122.671875 C 33.984375 -120.804688 34.921875 -118.519531 34.921875 -115.8125 C 34.921875 -113.113281 33.984375 -110.828125 32.109375 -108.953125 C 30.234375 -107.085938 27.945312 -106.15625 25.25 -106.15625 C 22.550781 -106.15625 20.265625 -107.085938 18.390625 -108.953125 C 16.523438 -110.828125 15.59375 -113.113281 15.59375 -115.8125 Z M 15.59375 -115.8125 "/></g></g></g><g fill="#000000" fill-opacity="1"><g transform="translate(331.411753, 145.172744)"><g><path d="M 81.359375 -14.5 C 72.535156 -3.789062 61.578125 1.5625 48.484375 1.5625 C 42.347656 1.5625 36.785156 0.550781 31.796875 -1.46875 C 26.804688 -3.5 22.519531 -6.359375 18.9375 -10.046875 C 15.351562 -13.742188 12.570312 -18.160156 10.59375 -23.296875 C 8.625 -28.441406 7.640625 -34.132812 7.640625 -40.375 C 7.640625 -46.707031 8.675781 -52.578125 10.75 -57.984375 C 12.832031 -63.390625 15.769531 -68.015625 19.5625 -71.859375 C 23.351562 -75.703125 27.875 -78.710938 33.125 -80.890625 C 38.375 -83.078125 44.113281 -84.171875 50.34375 -84.171875 C 60.425781 -84.171875 68.21875 -81.441406 73.71875 -75.984375 C 79.226562 -70.535156 81.984375 -62.71875 81.984375 -52.53125 C 81.984375 -51.070312 81.695312 -50.1875 81.125 -49.875 C 80.5625 -49.5625 79.238281 -49.40625 77.15625 -49.40625 L 25.875 -49.40625 C 25.664062 -48.582031 25.507812 -47.570312 25.40625 -46.375 C 25.300781 -45.175781 25.25 -43.847656 25.25 -42.390625 C 25.25 -36.992188 25.898438 -32.085938 27.203125 -27.671875 C 28.503906 -23.253906 30.375 -19.484375 32.8125 -16.359375 C 35.25 -13.242188 38.15625 -10.828125 41.53125 -9.109375 C 44.914062 -7.398438 48.6875 -6.546875 52.84375 -6.546875 C 57.207031 -6.546875 61.257812 -7.503906 65 -9.421875 C 68.738281 -11.347656 72.582031 -14.492188 76.53125 -18.859375 Z M 55.640625 -56.578125 C 57.722656 -56.578125 59.382812 -56.628906 60.625 -56.734375 C 61.875 -56.835938 62.8125 -57.046875 63.4375 -57.359375 C 64.0625 -57.671875 64.476562 -58.113281 64.6875 -58.6875 C 64.894531 -59.257812 65 -60.015625 65 -60.953125 C 65 -65.734375 63.460938 -69.550781 60.390625 -72.40625 C 57.328125 -75.257812 53.148438 -76.6875 47.859375 -76.6875 C 36.628906 -76.6875 29.664062 -69.984375 26.96875 -56.578125 Z M 55.640625 -56.578125 "/></g></g></g><g fill="#000000" fill-opacity="1"><g transform="translate(420.724788, 145.172744)"><g><path d="M 78.875 -12.9375 C 75.132812 -8.363281 70.300781 -4.800781 64.375 -2.25 C 58.445312 0.289062 52.054688 1.5625 45.203125 1.5625 C 39.691406 1.5625 34.625 0.550781 30 -1.46875 C 25.375 -3.5 21.398438 -6.359375 18.078125 -10.046875 C 14.753906 -13.742188 12.179688 -18.1875 10.359375 -23.375 C 8.546875 -28.570312 7.640625 -34.34375 7.640625 -40.6875 C 7.640625 -47.332031 8.675781 -53.332031 10.75 -58.6875 C 12.832031 -64.039062 15.769531 -68.613281 19.5625 -72.40625 C 23.351562 -76.195312 27.925781 -79.101562 33.28125 -81.125 C 38.632812 -83.15625 44.53125 -84.171875 50.96875 -84.171875 C 55.019531 -84.171875 58.707031 -83.832031 62.03125 -83.15625 C 65.363281 -82.476562 68.25 -81.539062 70.6875 -80.34375 C 73.132812 -79.15625 75.03125 -77.703125 76.375 -75.984375 C 77.726562 -74.273438 78.40625 -72.429688 78.40625 -70.453125 C 78.40625 -68.378906 77.726562 -66.769531 76.375 -65.625 C 75.03125 -64.476562 73.160156 -63.90625 70.765625 -63.90625 C 68.898438 -63.90625 67.34375 -64.296875 66.09375 -65.078125 C 64.84375 -65.859375 63.234375 -67.597656 61.265625 -70.296875 C 59.179688 -72.691406 57.175781 -74.378906 55.25 -75.359375 C 53.332031 -76.347656 50.867188 -76.84375 47.859375 -76.84375 C 40.472656 -76.84375 34.882812 -73.984375 31.09375 -68.265625 C 27.300781 -62.554688 25.40625 -54.140625 25.40625 -43.015625 C 25.40625 -31.066406 27.507812 -22 31.71875 -15.8125 C 35.925781 -9.632812 42.082031 -6.546875 50.1875 -6.546875 C 54.550781 -6.546875 58.65625 -7.398438 62.5 -9.109375 C 66.34375 -10.828125 70.242188 -13.609375 74.203125 -17.453125 Z M 78.875 -12.9375 "/></g></g></g><g fill="#000000" fill-opacity="1"><g transform="translate(504.270608, 145.172744)"><g><path d="M 6.234375 -72.796875 L 6.234375 -78.5625 C 11.742188 -81.78125 16.054688 -85 19.171875 -88.21875 C 22.285156 -91.445312 24.675781 -95.296875 26.34375 -99.765625 L 30.859375 -99.765625 L 30.859375 -80.125 L 51.75 -80.125 L 51.75 -72.796875 L 30.859375 -72.796875 L 30.859375 -25.40625 C 30.859375 -21.769531 31.039062 -18.703125 31.40625 -16.203125 C 31.769531 -13.710938 32.367188 -11.710938 33.203125 -10.203125 C 34.035156 -8.703125 35.125 -7.640625 36.46875 -7.015625 C 37.820312 -6.390625 39.539062 -6.078125 41.625 -6.078125 C 44.21875 -6.078125 46.421875 -6.625 48.234375 -7.71875 C 50.054688 -8.8125 51.851562 -10.65625 53.625 -13.25 L 57.515625 -10.28125 C 56.054688 -6.4375 53.535156 -3.5 49.953125 -1.46875 C 46.367188 0.550781 41.925781 1.5625 36.625 1.5625 C 29.769531 1.5625 24.550781 -0.0703125 20.96875 -3.34375 C 17.382812 -6.625 15.59375 -11.328125 15.59375 -17.453125 L 15.59375 -72.796875 Z M 6.234375 -72.796875 "/></g></g></g></g></g><g transform="matrix(1, 0, 0, 1, 494, 489)"><g clip-path="url(#02c1e6ea36)"><g fill="#000000" fill-opacity="1"><g transform="translate(0.657393, 58.392336)"><g><path d="M 46.59375 -34.328125 L 44.171875 -34.328125 C 44.046875 -36.023438 43.765625 -37.445312 43.328125 -38.59375 C 42.898438 -39.738281 42.28125 -40.632812 41.46875 -41.28125 C 40.65625 -41.9375 39.632812 -42.398438 38.40625 -42.671875 C 37.1875 -42.953125 35.726562 -43.09375 34.03125 -43.09375 C 32.5625 -43.09375 31.382812 -43.0625 30.5 -43 C 29.613281 -42.945312 28.929688 -42.84375 28.453125 -42.6875 C 27.984375 -42.53125 27.675781 -42.34375 27.53125 -42.125 C 27.394531 -41.90625 27.328125 -41.617188 27.328125 -41.265625 L 27.328125 -9.546875 C 27.328125 -8.273438 27.414062 -7.1875 27.59375 -6.28125 C 27.769531 -5.375 28.125 -4.632812 28.65625 -4.0625 C 29.195312 -3.488281 29.96875 -3.050781 30.96875 -2.75 C 31.976562 -2.457031 33.3125 -2.289062 34.96875 -2.25 L 34.96875 0 L 12.5625 0 L 12.5625 -2.25 C 14.226562 -2.289062 15.570312 -2.457031 16.59375 -2.75 C 17.625 -3.050781 18.40625 -3.488281 18.9375 -4.0625 C 19.46875 -4.632812 19.820312 -5.375 20 -6.28125 C 20.1875 -7.1875 20.28125 -8.273438 20.28125 -9.546875 L 20.28125 -41.265625 C 20.28125 -41.617188 20.207031 -41.90625 20.0625 -42.125 C 19.925781 -42.34375 19.648438 -42.53125 19.234375 -42.6875 C 18.816406 -42.84375 18.234375 -42.945312 17.484375 -43 C 16.734375 -43.0625 15.726562 -43.09375 14.46875 -43.09375 C 12.925781 -43.09375 11.492188 -43.03125 10.171875 -42.90625 C 8.847656 -42.789062 7.703125 -42.445312 6.734375 -41.875 C 5.765625 -41.300781 4.984375 -40.421875 4.390625 -39.234375 C 3.796875 -38.054688 3.476562 -36.421875 3.4375 -34.328125 L 1.25 -34.328125 L 1.25 -45.640625 L 46 -45.640625 Z M 46.59375 -34.328125 "/></g></g></g><g fill="#000000" fill-opacity="1"><g transform="translate(51.224649, 58.392336)"><g><path d="M 12.328125 -9.421875 C 12.328125 -7.804688 12.363281 -6.523438 12.4375 -5.578125 C 12.519531 -4.628906 12.726562 -3.90625 13.0625 -3.40625 C 13.40625 -2.914062 13.890625 -2.585938 14.515625 -2.421875 C 15.148438 -2.265625 16.039062 -2.148438 17.1875 -2.078125 L 17.1875 0 L 1.421875 0 L 1.421875 -2.078125 C 2.566406 -2.148438 3.472656 -2.265625 4.140625 -2.421875 C 4.816406 -2.585938 5.332031 -2.90625 5.6875 -3.375 C 6.039062 -3.851562 6.265625 -4.535156 6.359375 -5.421875 C 6.460938 -6.316406 6.515625 -7.515625 6.515625 -9.015625 L 6.515625 -33.84375 C 6.515625 -36.175781 6.484375 -38.035156 6.421875 -39.421875 C 6.367188 -40.804688 6.265625 -41.851562 6.109375 -42.5625 C 6.023438 -43.039062 5.894531 -43.425781 5.71875 -43.71875 C 5.539062 -44.019531 5.273438 -44.257812 4.921875 -44.4375 C 4.566406 -44.613281 4.09375 -44.738281 3.5 -44.8125 C 2.90625 -44.894531 2.171875 -44.9375 1.296875 -44.9375 L 1.296875 -46.953125 L 12.21875 -49.203125 L 12.21875 -26.625 L 12.453125 -26.625 C 13.046875 -27.40625 13.785156 -28.125 14.671875 -28.78125 C 15.554688 -29.4375 16.515625 -30 17.546875 -30.46875 C 18.578125 -30.945312 19.65625 -31.320312 20.78125 -31.59375 C 21.90625 -31.875 23 -32.015625 24.0625 -32.015625 C 25.882812 -32.015625 27.554688 -31.695312 29.078125 -31.0625 C 30.597656 -30.425781 31.773438 -29.578125 32.609375 -28.515625 C 33.273438 -27.609375 33.765625 -26.410156 34.078125 -24.921875 C 34.398438 -23.441406 34.5625 -21.4375 34.5625 -18.90625 L 34.5625 -9.421875 C 34.5625 -7.804688 34.597656 -6.53125 34.671875 -5.59375 C 34.753906 -4.664062 34.960938 -3.945312 35.296875 -3.4375 C 35.640625 -2.925781 36.125 -2.585938 36.75 -2.421875 C 37.382812 -2.265625 38.273438 -2.148438 39.421875 -2.078125 L 39.421875 0 L 23.71875 0 L 23.71875 -2.078125 C 24.820312 -2.117188 25.707031 -2.226562 26.375 -2.40625 C 27.050781 -2.582031 27.554688 -2.90625 27.890625 -3.375 C 28.222656 -3.851562 28.4375 -4.535156 28.53125 -5.421875 C 28.632812 -6.316406 28.6875 -7.515625 28.6875 -9.015625 L 28.6875 -16.484375 C 28.6875 -20.910156 28.171875 -24.0625 27.140625 -25.9375 C 26.117188 -27.8125 24.40625 -28.75 22 -28.75 C 20.132812 -28.75 18.441406 -28.273438 16.921875 -27.328125 C 15.398438 -26.378906 14.207031 -25.078125 13.34375 -23.421875 C 13.144531 -22.984375 12.972656 -22.578125 12.828125 -22.203125 C 12.691406 -21.828125 12.582031 -21.398438 12.5 -20.921875 C 12.425781 -20.453125 12.378906 -19.910156 12.359375 -19.296875 C 12.335938 -18.679688 12.328125 -17.921875 12.328125 -17.015625 Z M 12.328125 -9.421875 "/></g></g></g><g fill="#000000" fill-opacity="1"><g transform="translate(94.974549, 58.392336)"><g><path d="M 30.9375 -5.515625 C 27.582031 -1.441406 23.414062 0.59375 18.4375 0.59375 C 16.101562 0.59375 13.988281 0.207031 12.09375 -0.5625 C 10.195312 -1.332031 8.566406 -2.414062 7.203125 -3.8125 C 5.835938 -5.21875 4.78125 -6.898438 4.03125 -8.859375 C 3.28125 -10.816406 2.90625 -12.984375 2.90625 -15.359375 C 2.90625 -17.765625 3.300781 -19.992188 4.09375 -22.046875 C 4.882812 -24.109375 6 -25.867188 7.4375 -27.328125 C 8.882812 -28.785156 10.601562 -29.929688 12.59375 -30.765625 C 14.59375 -31.597656 16.773438 -32.015625 19.140625 -32.015625 C 22.972656 -32.015625 25.9375 -30.972656 28.03125 -28.890625 C 30.132812 -26.816406 31.1875 -23.847656 31.1875 -19.984375 C 31.1875 -19.421875 31.078125 -19.082031 30.859375 -18.96875 C 30.640625 -18.851562 30.132812 -18.796875 29.34375 -18.796875 L 9.84375 -18.796875 C 9.757812 -18.472656 9.695312 -18.082031 9.65625 -17.625 C 9.625 -17.175781 9.609375 -16.675781 9.609375 -16.125 C 9.609375 -14.070312 9.851562 -12.203125 10.34375 -10.515625 C 10.832031 -8.835938 11.539062 -7.40625 12.46875 -6.21875 C 13.40625 -5.039062 14.515625 -4.125 15.796875 -3.46875 C 17.078125 -2.8125 18.507812 -2.484375 20.09375 -2.484375 C 21.757812 -2.484375 23.300781 -2.847656 24.71875 -3.578125 C 26.144531 -4.316406 27.609375 -5.515625 29.109375 -7.171875 Z M 21.15625 -21.515625 C 21.945312 -21.515625 22.578125 -21.535156 23.046875 -21.578125 C 23.523438 -21.617188 23.882812 -21.695312 24.125 -21.8125 C 24.363281 -21.9375 24.519531 -22.101562 24.59375 -22.3125 C 24.675781 -22.53125 24.71875 -22.816406 24.71875 -23.171875 C 24.71875 -24.992188 24.132812 -26.445312 22.96875 -27.53125 C 21.800781 -28.625 20.210938 -29.171875 18.203125 -29.171875 C 13.929688 -29.171875 11.28125 -26.617188 10.25 -21.515625 Z M 21.15625 -21.515625 "/></g></g></g></g></g></svg>